<svg version="1.1" id="Layer_1" xmlns="http://www.w3.org/2000/svg" xmlns:xlink="http://www.w3.org/1999/xlink" x="0px" y="0px"
	 width="100%" viewBox="0 0 263 276" enable-background="new 0 0 263 276" xml:space="preserve">
<path fill="#FEFEFF" opacity="1.000000" stroke="none" 
	d="
M175.000000,277.000000 
	C116.666664,277.000000 58.833332,277.000000 1.000000,277.000000 
	C1.000000,185.000000 1.000000,93.000000 1.000000,1.000000 
	C88.666664,1.000000 176.333328,1.000000 264.000000,1.000000 
	C264.000000,93.000000 264.000000,185.000000 264.000000,277.000000 
	C234.500000,277.000000 205.000000,277.000000 175.000000,277.000000 
M178.500000,163.883118 
	C158.577637,163.883118 138.655273,163.883118 118.794800,163.883118 
	C118.526199,164.817230 118.274925,165.284531 118.274200,165.752228 
	C118.243675,185.245667 118.260094,204.739212 118.199089,224.232529 
	C118.189606,227.262161 119.532478,228.340439 122.460533,228.303299 
	C130.123505,228.206116 137.801514,228.005508 145.448044,228.374329 
	C150.141220,228.600693 151.506790,227.013107 151.328735,222.426758 
	C150.994919,213.827438 151.232635,205.205948 151.232635,196.469330 
	C173.366806,196.469330 194.871780,196.469330 216.753525,196.469330 
	C216.753525,205.729813 216.875671,214.540604 216.694290,223.345139 
	C216.620209,226.941513 217.696930,228.450195 221.510117,228.341187 
	C229.334579,228.117554 237.174545,228.113754 244.998764,228.341309 
	C248.852463,228.453400 249.823898,226.841187 249.819427,223.302444 
	C249.751007,169.153015 249.740570,115.003410 249.835052,60.854053 
	C249.842056,56.838078 248.338867,55.647221 244.519394,55.760429 
	C237.194824,55.977539 229.846008,56.090172 222.532974,55.727493 
	C217.782898,55.491920 216.642410,57.268890 216.665527,61.763458 
	C216.830032,93.752480 216.752960,125.742752 216.752792,157.732620 
	C216.752792,159.652145 216.752792,161.571686 216.752792,163.883057 
	C203.781204,163.883057 191.640594,163.883057 178.500000,163.883118 
M67.186363,87.950813 
	C74.746033,90.268188 79.263130,95.105652 80.495895,103.123665 
	C80.705666,104.488060 82.908455,106.521873 84.256874,106.575432 
	C92.404480,106.899055 100.571526,106.709038 108.731758,106.751808 
	C111.649651,106.767090 112.710007,105.239525 112.115013,102.633438 
	C110.681450,96.354240 110.011475,89.688881 107.384476,83.931740 
	C97.551910,62.383404 72.125832,51.550343 46.448277,57.291580 
	C12.457196,64.891632 -5.016398,102.769562 12.293228,132.291397 
	C22.073067,148.971069 38.291325,155.235779 56.704056,157.141190 
	C60.467491,157.530640 64.396194,157.987198 67.848618,159.394424 
	C76.874680,163.073471 81.976364,171.663116 80.904411,180.275085 
	C79.845741,188.780334 73.094109,195.194473 63.367161,196.929718 
	C62.102993,197.155212 60.834846,197.358444 59.450096,197.591949 
	C59.450096,207.807373 59.450096,217.728043 59.450096,228.233902 
	C74.227287,228.135803 87.320320,224.136780 97.931068,214.048004 
	C112.824104,199.887619 116.031799,182.200607 110.854744,163.066284 
	C105.540901,143.426422 91.375793,132.681107 72.105759,128.311417 
	C66.462280,127.031700 60.538486,127.042374 54.785885,126.177528 
	C45.117809,124.724052 38.603848,117.926414 38.079552,109.068680 
	C37.447330,98.387436 42.986748,90.075539 53.073502,87.905815 
	C57.324558,86.991394 61.936447,87.754440 67.186363,87.950813 
M118.217484,63.662350 
	C118.217484,85.862999 118.217484,108.063644 118.217484,130.385284 
	C129.617599,130.385284 140.191727,130.385284 150.634460,130.385284 
	C150.897858,129.786072 151.144608,129.486359 151.145111,129.186234 
	C151.184341,105.895897 151.180908,82.605461 151.253891,59.315258 
	C151.263489,56.257420 149.551468,55.787586 147.083008,55.803345 
	C139.763046,55.850086 132.442596,55.812702 125.122330,55.819496 
	C118.260002,55.825863 118.260010,55.832195 118.217484,63.662350 
z"/>
<path fill="#6C10AE" opacity="1.000000" stroke="none" 
	d="
M179.000000,163.883087 
	C191.640594,163.883057 203.781204,163.883057 216.752792,163.883057 
	C216.752792,161.571686 216.752792,159.652145 216.752792,157.732620 
	C216.752960,125.742752 216.830032,93.752480 216.665527,61.763458 
	C216.642410,57.268890 217.782898,55.491920 222.532974,55.727493 
	C229.846008,56.090172 237.194824,55.977539 244.519394,55.760429 
	C248.338867,55.647221 249.842056,56.838078 249.835052,60.854053 
	C249.740570,115.003410 249.751007,169.153015 249.819427,223.302444 
	C249.823898,226.841187 248.852463,228.453400 244.998764,228.341309 
	C237.174545,228.113754 229.334579,228.117554 221.510117,228.341187 
	C217.696930,228.450195 216.620209,226.941513 216.694290,223.345139 
	C216.875671,214.540604 216.753525,205.729813 216.753525,196.469330 
	C194.871780,196.469330 173.366806,196.469330 151.232635,196.469330 
	C151.232635,205.205948 150.994919,213.827438 151.328735,222.426758 
	C151.506790,227.013107 150.141220,228.600693 145.448044,228.374329 
	C137.801514,228.005508 130.123505,228.206116 122.460533,228.303299 
	C119.532478,228.340439 118.189606,227.262161 118.199089,224.232529 
	C118.260094,204.739212 118.243675,185.245667 118.274200,165.752228 
	C118.274925,165.284531 118.526199,164.817230 118.794800,163.883118 
	C138.655273,163.883118 158.577637,163.883118 179.000000,163.883087 
z"/>
<path fill="#6C11AE" opacity="1.000000" stroke="none" 
	d="
M66.785339,87.852890 
	C61.936447,87.754440 57.324558,86.991394 53.073502,87.905815 
	C42.986748,90.075539 37.447330,98.387436 38.079552,109.068680 
	C38.603848,117.926414 45.117809,124.724052 54.785885,126.177528 
	C60.538486,127.042374 66.462280,127.031700 72.105759,128.311417 
	C91.375793,132.681107 105.540901,143.426422 110.854744,163.066284 
	C116.031799,182.200607 112.824104,199.887619 97.931068,214.048004 
	C87.320320,224.136780 74.227287,228.135803 59.450096,228.233902 
	C59.450096,217.728043 59.450096,207.807373 59.450096,197.591949 
	C60.834846,197.358444 62.102993,197.155212 63.367161,196.929718 
	C73.094109,195.194473 79.845741,188.780334 80.904411,180.275085 
	C81.976364,171.663116 76.874680,163.073471 67.848618,159.394424 
	C64.396194,157.987198 60.467491,157.530640 56.704056,157.141190 
	C38.291325,155.235779 22.073067,148.971069 12.293228,132.291397 
	C-5.016398,102.769562 12.457196,64.891632 46.448277,57.291580 
	C72.125832,51.550343 97.551910,62.383404 107.384476,83.931740 
	C110.011475,89.688881 110.681450,96.354240 112.115013,102.633438 
	C112.710007,105.239525 111.649651,106.767090 108.731758,106.751808 
	C100.571526,106.709038 92.404480,106.899055 84.256874,106.575432 
	C82.908455,106.521873 80.705666,104.488060 80.495895,103.123665 
	C79.263130,95.105652 74.746033,90.268188 66.785339,87.852890 
z"/>
<path fill="#6D11AE" opacity="1.000000" stroke="none" 
	d="
M118.217560,63.187462 
	C118.260010,55.832195 118.260002,55.825863 125.122330,55.819496 
	C132.442596,55.812702 139.763046,55.850086 147.083008,55.803345 
	C149.551468,55.787586 151.263489,56.257420 151.253891,59.315258 
	C151.180908,82.605461 151.184341,105.895897 151.145111,129.186234 
	C151.144608,129.486359 150.897858,129.786072 150.634460,130.385284 
	C140.191727,130.385284 129.617599,130.385284 118.217484,130.385284 
	C118.217484,108.063644 118.217484,85.862999 118.217560,63.187462 
z"/>
</svg>