<?xml version="1.0" encoding="UTF-8" standalone="no"?>
  <svg version="1.1" id="Layer_1" xmlns="http://www.w3.org/2000/svg" xmlnsXlink="http://www.w3.org/1999/xlink" x="0px" y="0px"
	 width="100%" viewBox="0 0 496 496" enableBackground="new 0 0 496 496" xmlSpace="preserve" color='306998'>
<path fill="#6a0dad" opacity="1.000000" stroke="none" 
	d="
M345.091644,354.370392 
	C335.923676,354.323486 335.923615,354.323486 335.915497,345.838654 
	C335.909424,339.509003 335.787262,333.176514 335.943817,326.850861 
	C336.029846,323.377167 334.642639,322.195801 331.223389,322.215637 
	C313.067810,322.321075 294.910675,322.344360 276.755646,322.199860 
	C272.914673,322.169312 271.840088,323.800018 271.894257,327.280762 
	C272.005646,334.441223 271.852631,341.605469 271.915771,348.767181 
	C271.949982,352.649261 270.521240,354.546875 266.303680,354.424683 
	C258.481293,354.198090 250.646912,354.272400 242.819626,354.377899 
	C239.196747,354.426697 237.691818,352.823364 237.698395,349.285065 
	C237.733368,330.462738 237.769745,311.639923 237.659302,292.818176 
	C237.633286,288.383514 240.480942,288.702759 243.372955,288.708038 
	C270.190125,288.756989 297.007263,288.804260 323.824432,288.849945 
	C335.871552,288.870453 335.881927,288.868317 335.888458,276.605316 
	C335.904053,247.455475 335.891174,218.305618 335.929871,189.155823 
	C335.940063,181.459335 336.569305,180.869522 344.123291,180.828278 
	C350.452789,180.793716 356.782715,180.779922 363.112183,180.811005 
	C369.643036,180.843079 370.245972,181.433609 370.247864,187.999832 
	C370.261932,237.138138 370.256561,286.276428 370.257690,335.414734 
	C370.257782,339.412415 370.279663,343.410217 370.259033,347.407776 
	C370.224854,354.033569 369.903717,354.344879 363.066620,354.365387 
	C357.236816,354.382843 351.406982,354.369934 345.091644,354.370392 
z"/>
<path fill="#6a0dad" opacity="1.000000" stroke="none" 
	d="
M132.331100,206.475464 
	C150.285370,177.463074 191.270737,173.190979 215.789551,193.561401 
	C226.435471,202.406128 231.879807,214.064209 232.452576,228.005753 
	C232.594589,231.462250 231.397644,233.020432 228.024368,233.021118 
	C220.359787,233.022690 212.695129,233.045685 205.030685,233.015488 
	C201.928665,233.003265 199.969238,231.591385 199.719742,228.305511 
	C198.878021,217.220428 186.420364,210.442688 172.522690,214.164825 
	C161.309189,217.168076 155.377060,229.070755 159.665085,239.865082 
	C162.948929,248.131577 169.877594,251.266266 178.302002,251.702225 
	C190.298492,252.323059 201.772430,254.833481 211.857239,261.679962 
	C228.927551,273.268829 235.019821,290.153564 233.016144,309.840088 
	C230.908798,330.545410 218.989609,344.187592 199.483627,351.193634 
	C194.295685,353.057007 188.905121,354.026001 183.377502,354.339386 
	C179.967209,354.532745 178.569473,353.290649 178.652100,349.776154 
	C178.820435,342.615356 178.946533,335.435516 178.599228,328.287354 
	C178.394089,324.065308 179.923233,322.420471 183.982620,321.747101 
	C191.587173,320.485718 197.227646,316.339233 199.611649,308.756897 
	C202.179169,300.590790 198.674652,292.053680 191.012558,287.287476 
	C186.840622,284.692352 182.285416,283.561737 177.312119,283.229675 
	C160.934677,282.136139 146.006119,277.019073 135.701340,263.616333 
	C121.956253,245.738968 122.468063,226.412003 132.331100,206.475464 
z"/>
<path fill="#6a0dad" opacity="1.000000" stroke="none" 
	d="
M237.782669,184.420624 
	C238.629135,181.072906 240.949966,180.833954 243.363770,180.830170 
	C251.014053,180.818222 258.665070,180.896469 266.314392,180.810394 
	C270.088257,180.767914 271.690491,182.369949 271.691528,186.197174 
	C271.697235,207.478592 271.852020,228.759888 271.894897,250.041367 
	C271.908569,256.818085 271.716705,256.944733 264.835754,256.967285 
	C257.684387,256.990753 250.527573,256.798096 243.383423,257.024658 
	C239.074799,257.161316 237.581589,255.600967 237.617432,251.235641 
	C237.798981,229.117676 237.721252,206.997559 237.782669,184.420624 
z"/>
</svg>